<svg xmlns="http://www.w3.org/2000/svg" width="72" height="72" fill="none"><circle cx="36" cy="36" r="36" fill="#443CD5"/><path fill="#fff" fill-rule="evenodd" d="M36.378 51.084a.356.356 0 0 1-.356-.356V28.964a.356.356 0 0 1 .712 0v21.764c0 .196-.16.355-.356.355z" clip-rule="evenodd"/><path fill="#fff" fill-rule="evenodd" d="M50.662 51.084h-28.57c-.602 0-1.092-.49-1.092-1.093V29.703c0-.602.49-1.092 1.092-1.092h1.628a.356.356 0 0 1 0 .712h-1.628a.38.38 0 0 0-.38.38v20.288c0 .21.171.38.38.38h28.57c.21 0 .38-.17.38-.38V29.703a.38.38 0 0 0-.38-.38h-1.626a.356.356 0 0 1 0-.712h1.626c.602 0 1.092.49 1.092 1.092v20.288c0 .602-.49 1.093-1.092 1.093z" clip-rule="evenodd"/><path fill="#fff" fill-rule="evenodd" d="M33.5 34.379h-6.903a.356.356 0 0 1 0-.712H33.5a.356.356 0 0 1 0 .712zm0 3.632h-6.903a.356.356 0 0 1 0-.712H33.5a.356.356 0 0 1 0 .712zm0 3.632h-6.903a.356.356 0 0 1 0-.712H33.5a.356.356 0 0 1 0 .712zm0-10.896h-6.903a.356.356 0 0 1 0-.712H33.5a.356.356 0 0 1 0 .712zm0 14.529h-6.903a.356.356 0 0 1 0-.712H33.5a.356.356 0 0 1 0 .712zm12.658-10.897h-6.903a.356.356 0 0 1 0-.712h6.903a.356.356 0 0 1 0 .712zm0 3.632h-6.903a.356.356 0 0 1 0-.712h6.903a.356.356 0 0 1 0 .712zm0 3.632h-6.903a.356.356 0 0 1 0-.712h6.903a.356.356 0 0 1 0 .712zm0-10.896h-6.903a.356.356 0 0 1 0-.712h6.903a.356.356 0 0 1 0 .712zm0 14.529h-6.903a.356.356 0 0 1 0-.712h6.903a.356.356 0 0 1 0 .712z" clip-rule="evenodd"/><path fill="#fff" fill-rule="evenodd" d="M36.378 51.083c-.303 0-.595-.089-.846-.256-.21-.14-.423-.319-.63-.491-.36-.302-.735-.613-1.082-.719a6.466 6.466 0 0 0-1.871-.276h-7.554a1.033 1.033 0 0 1-1.032-1.032V26.815c0-.456.307-.864.747-.992.807-.234 2.88-.45 6.335-.66a.355.355 0 1 1 .043.71c-3.355.205-5.435.418-6.18.634a.323.323 0 0 0-.233.308v21.494c0 .176.143.32.32.32h7.554c.704 0 1.403.103 2.078.308.486.147.916.506 1.332.853.2.167.39.325.568.444a.808.808 0 0 0 .901 0c1.165-.777 2.529-1.605 3.977-1.605h7.554a.32.32 0 0 0 .32-.32V26.815a.32.32 0 0 0-.234-.309c-.744-.215-2.824-.428-6.18-.632a.355.355 0 1 1 .044-.71c3.456.21 5.528.425 6.335.659.44.129.747.536.747.992v21.494c0 .568-.463 1.032-1.032 1.032h-7.554c-1.246 0-2.498.763-3.574 1.48l-.009.006c-.25.168-.542.256-.844.256z" clip-rule="evenodd"/><path fill="#fff" fill-rule="evenodd" d="M31.162 20.712a.339.339 0 0 0-.338.338v5.482c0 .186.151.338.338.338h3.892c.412 0 .78.23.963.599l.35.712.35-.712c.182-.37.55-.599.962-.599h3.915a.339.339 0 0 0 .338-.338V21.05a.34.34 0 0 0-.339-.338h-10.43zm5.215 8.61h-.02a.356.356 0 0 1-.32-.199l-.66-1.34a.36.36 0 0 0-.323-.202h-3.892a1.05 1.05 0 0 1-1.05-1.05v-5.48c0-.58.471-1.051 1.05-1.051h10.431c.58 0 1.051.471 1.051 1.05v5.482c0 .579-.471 1.05-1.05 1.05h-3.915a.36.36 0 0 0-.324.201l-.659 1.34a.356.356 0 0 1-.32.199z" clip-rule="evenodd"/><path fill="#fff" fill-rule="evenodd" d="M35.287 26.09h-2.59a.356.356 0 0 1-.356-.357V21.85c0-.197.159-.356.355-.356h2.59a.356.356 0 0 1 0 .712h-2.234v3.172h2.235a.356.356 0 0 1 0 .712z" clip-rule="evenodd"/><path fill="#fff" fill-rule="evenodd" d="M35.287 24.147h-2.59a.356.356 0 1 1 0-.712h2.59a.356.356 0 0 1 0 .712zm4.773 1.943a.356.356 0 0 1-.297-.159l-1.938-2.907v2.71a.356.356 0 0 1-.712 0v-3.885a.355.355 0 0 1 .652-.198l1.938 2.907v-2.71a.356.356 0 0 1 .712 0v3.885a.355.355 0 0 1-.356.356z" clip-rule="evenodd"/></svg>