<svg xmlns="http://www.w3.org/2000/svg" width="72" height="72" fill="none"><circle cx="36" cy="36" r="36" fill="#443CD5"/><path fill="#fff" d="M49.457 27.627h-1.845v-.63a.543.543 0 0 0-.39-.542 15.288 15.288 0 0 0-3.914-.5c-2.171 0-5.129.489-7.316 2.714-2.171-2.247-5.15-2.713-7.316-2.713a15.287 15.287 0 0 0-3.913.499.542.542 0 0 0-.391.543v.624h-1.83a.542.542 0 0 0-.542.542V45.5a.543.543 0 0 0 .809.472c.054-.027 5.481-2.996 13.058-1.086h.131a.545.545 0 0 0 .13 0c7.598-1.926 13.025 1.037 13.058 1.086a.543.543 0 0 0 .814-.467V28.17c0-.3-.243-.543-.543-.543zm-26.372 17.01V28.713h1.298v13.612a.543.543 0 0 0 .624.542 23.768 23.768 0 0 1 3.392-.271 14.08 14.08 0 0 1 4.635.7c-3.376-.408-6.8.053-9.948 1.34zm5.314-3.121a23.87 23.87 0 0 0-2.953.19v-14.28a14.973 14.973 0 0 1 3.219-.358c2.03 0 4.83.467 6.773 2.66l.017 13.52c-1.13-.739-3.333-1.732-7.056-1.732zm8.141-11.788c1.943-2.171 4.744-2.66 6.773-2.66 1.083.003 2.162.123 3.219.358v14.28a23.885 23.885 0 0 0-2.936-.196c-3.702 0-5.91.994-7.056 1.732V29.728zm12.37 14.909a19.956 19.956 0 0 0-9.971-1.34 14.11 14.11 0 0 1 4.657-.701c1.143.006 2.283.095 3.414.266a.543.543 0 0 0 .624-.543V28.713h1.297l-.022 15.924z"/></svg>