<svg xmlns="http://www.w3.org/2000/svg" width="72" height="72" fill="none"><circle cx="36" cy="36" r="36" fill="#443CD5"/><path fill="#fff" d="M47.834 27.55h-5.917v-1.183A2.37 2.37 0 0 0 39.55 24h-7.1a2.369 2.369 0 0 0-2.366 2.367v1.183h-5.917a2.37 2.37 0 0 0-2.367 2.367V45.3a2.37 2.37 0 0 0 2.367 2.367h23.667a2.37 2.37 0 0 0 2.367-2.367V29.918a2.37 2.37 0 0 0-2.367-2.367zm-16.567-1.183c0-.653.531-1.184 1.183-1.184h7.1c.653 0 1.184.531 1.184 1.184v1.183h-9.467v-1.183zM49.017 45.3c0 .652-.53 1.183-1.183 1.183H24.167a1.185 1.185 0 0 1-1.184-1.183v-8.613c.35.204.75.329 1.184.329h9.467v1.775c0 .327.264.592.591.592h3.55a.591.591 0 0 0 .592-.592v-1.775h9.467a2.34 2.34 0 0 0 1.183-.33V45.3zm-14.2-7.1v-2.367h2.367V38.2h-2.367zm14.2-3.55c0 .652-.53 1.183-1.183 1.183h-9.467v-.592a.591.591 0 0 0-.592-.592h-3.55a.591.591 0 0 0-.591.592v.592h-9.467a1.185 1.185 0 0 1-1.184-1.184v-4.733c0-.652.532-1.184 1.184-1.184h23.667c.652 0 1.183.532 1.183 1.184v4.733z"/></svg>