<svg xmlns="http://www.w3.org/2000/svg" width="72" height="72" fill="none"><circle cx="36" cy="36" r="36" fill="#443CD5"/><path fill="#fff" d="M47.958 24.337a.546.546 0 0 0-.504-.337C26.285 24 24 32.773 24 36.545c0 4.894 3.727 8.182 9.273 8.182 7.004 0 8.471-6.665 9.26-10.246 1.06-4.82 3.394-7.635 5.307-9.55a.544.544 0 0 0 .118-.594zm-6.49 9.91c-1.001 4.542-2.54 9.389-8.196 9.389-4.893 0-8.181-2.85-8.181-7.09 0-3.37 2.086-11.11 21.076-11.444-1.803 1.984-3.742 4.787-4.7 9.145z"/><path fill="#fff" d="M39.218 29.762a.548.548 0 0 0-.729-.253C29.624 33.805 24 44.21 24 47.454a.546.546 0 0 0 1.09 0c0-2.55 4.922-12.625 13.875-16.963a.547.547 0 0 0 .253-.73z"/></svg>