<svg xmlns="http://www.w3.org/2000/svg" width="72" height="72" fill="none"><circle cx="36" cy="36" r="36" fill="#443CD5"/><path fill="#fff" d="M35.52 21C27.518 21 21 27.517 21 35.52c0 8.005 6.517 14.522 14.52 14.522a14.46 14.46 0 0 0 7.403-2.047c.021-.008.05-.008.07-.022a.37.37 0 0 0 .079-.07c4.172-2.558 6.97-7.14 6.97-12.382C50.042 27.517 43.525 21 35.52 21zm0 28.333c-7.614 0-13.812-6.198-13.812-13.812 0-7.494 6.007-13.607 13.459-13.791v13.79c0 .065.02.114.042.164 0 .007 0 .014.007.021l7.098 11.83a13.694 13.694 0 0 1-6.793 1.798zm7.403-2.167-6.779-11.291h13.168c-.12 4.746-2.635 8.897-6.39 11.29zm-7.048-12V21.73c7.331.184 13.253 6.105 13.437 13.437H35.875z"/></svg>