<svg xmlns="http://www.w3.org/2000/svg" width="190" height="38" viewBox="0 0 190 38" fill="none" id="svg-935596222_1774">
<path fill-rule="evenodd" clip-rule="evenodd" d="M0 14.2593L23.75 0L47.5 14.2593V23.737L23.75 38L0 23.737V14.2593ZM23.75 31.9494L42.4619 20.7121V17.2853L42.4609 17.2848L23.75 28.5187L5.03905 17.2848L5.03814 17.2853V20.7121L23.75 31.9494ZM23.75 23.2794L38.0967 14.6657L34.6018 12.5683L23.75 19.0837L12.8982 12.5683L9.40331 14.6657L23.75 23.2794ZM23.75 13.8443L30.2376 9.94925L23.75 6.05594L17.2624 9.94925L23.75 13.8443Z" fill="white"/>
<path d="M70.7762 35.625C68.1264 35.625 65.7626 35.0833 63.6848 33.9998C61.6071 32.9164 59.966 31.4376 58.7615 29.5636C57.5872 27.6602 57 25.508 57 23.1068V2.375H64.001V22.6676C64.001 23.956 64.2871 25.1273 64.8592 26.1815C65.4615 27.2064 66.2745 28.0116 67.2983 28.5973C68.3221 29.1829 69.4814 29.4757 70.7762 29.4757C72.1011 29.4757 73.2604 29.1829 74.2541 28.5973C75.2779 28.0116 76.0759 27.2064 76.648 26.1815C77.2503 25.1273 77.5514 23.956 77.5514 22.6676V2.375H84.5524V23.1068C84.5524 25.508 83.9502 27.6602 82.7457 29.5636C81.5713 31.4376 79.9453 32.9164 77.8676 33.9998C75.7898 35.0833 73.4261 35.625 70.7762 35.625Z" fill="white"/>
<path d="M90.0915 35.0979V2.375H95.4664L113.534 25.5226L110.643 26.1815V2.375H117.644V35.0979H112.224L94.4728 11.7746L97.0925 11.1158V35.0979H90.0915Z" fill="white"/>
<path d="M123.615 35.0979V2.375H130.616V35.0979H123.615Z" fill="white"/>
<path d="M134.098 35.0979L145.119 18.7145L134.098 2.375H142.138L150.991 15.4642H147.062L155.869 2.375H163.909L152.933 18.7145L163.909 35.0979H155.869L147.062 21.9648L150.991 22.0088L142.138 35.0979H134.098Z" fill="white"/>
<path d="M167.371 35.0979V2.375H190V8.30466H174.372V15.7277H189.097V21.6574H174.372V29.1683H190V35.0979H167.371Z" fill="white"/>
</svg>