<svg xmlns="http://www.w3.org/2000/svg" xmlns:xlink="http://www.w3.org/1999/xlink" viewBox="0 0 80 16"><path d="M 0 6.004 L 10 0 L 20 6.004 L 20 9.995 L 10 16 L 0 9.995 Z M 10 13.452 L 17.879 8.721 L 17.879 7.278 L 17.878 7.278 L 10 12.008 L 2.122 7.278 L 2.121 7.278 L 2.121 8.721 Z M 10 9.802 L 16.041 6.175 L 14.569 5.292 L 10 8.035 L 5.431 5.292 L 3.959 6.175 Z M 10 5.829 L 12.732 4.189 L 10 2.55 L 7.268 4.189 Z" fill="rgb(255,255,255)"></path><path d="M 29.8 15 C 28.685 15 27.689 14.772 26.815 14.316 C 25.94 13.86 25.249 13.237 24.742 12.448 C 24.247 11.646 24 10.74 24 9.729 L 24 1 L 26.948 1 L 26.948 9.544 C 26.948 10.087 27.068 10.58 27.309 11.024 C 27.563 11.455 27.905 11.794 28.336 12.041 C 28.767 12.287 29.255 12.411 29.8 12.411 C 30.358 12.411 30.846 12.287 31.265 12.041 C 31.696 11.794 32.032 11.455 32.273 11.024 C 32.526 10.58 32.653 10.087 32.653 9.544 L 32.653 1 L 35.601 1 L 35.601 9.729 C 35.601 10.74 35.347 11.646 34.84 12.448 C 34.346 13.237 33.661 13.86 32.786 14.316 C 31.912 14.772 30.916 15 29.8 15 Z" fill="rgb(255,255,255)"></path><path d="M 37.933 14.778 L 37.933 1 L 40.196 1 L 47.804 10.746 L 46.587 11.024 L 46.587 1 L 49.534 1 L 49.534 14.778 L 47.252 14.778 L 39.778 4.958 L 40.881 4.68 L 40.881 14.778 Z" fill="rgb(255,255,255)"></path><path d="M 52.048 14.778 L 52.048 1 L 54.996 1 L 54.996 14.778 Z" fill="rgb(255,255,255)"></path><path d="M 56.462 14.778 L 61.103 7.88 L 56.462 1 L 59.848 1 L 63.575 6.511 L 61.921 6.511 L 65.629 1 L 69.014 1 L 64.393 7.88 L 69.014 14.778 L 65.629 14.778 L 61.921 9.248 L 63.575 9.267 L 59.848 14.778 Z" fill="rgb(255,255,255)"></path><path d="M 70.472 14.778 L 70.472 1 L 80 1 L 80 3.497 L 73.42 3.497 L 73.42 6.622 L 79.62 6.622 L 79.62 9.119 L 73.42 9.119 L 73.42 12.281 L 80 12.281 L 80 14.778 Z" fill="rgb(255,255,255)"></path></svg>