<svg xmlns="http://www.w3.org/2000/svg" width="85" height="79" fill="none"><path fill="#443CD5" fill-opacity=".05" d="M0 0h85v79H0z"/><path fill="#443CD5" d="M50.57 57.243H35.96a.554.554 0 0 1-.554-.554v-7.385a.554.554 0 0 1 .554-.554h14.61a.554.554 0 0 1 .554.554v7.385a.554.554 0 0 1-.554.554zm-14.056-1.108h13.502v-6.277H36.514v6.277z"/><path fill="#443CD5" d="M53.032 59.784H33.498a.554.554 0 0 1-.554-.554v-2.541a.554.554 0 0 1 .554-.554H53.03a.554.554 0 0 1 .555.554v2.54a.554.554 0 0 1-.554.555zm-18.98-1.108h18.425v-1.433H34.053v1.433zm9.213-16.073c-5.554 0-10.073-7.16-10.073-15.957-.003-1.75.181-3.497.549-5.208a.554.554 0 0 1 .541-.438h17.966a.554.554 0 0 1 .541.437c.368 1.711.552 3.457.55 5.208 0 8.799-4.52 15.958-10.074 15.958zm-8.532-20.495a23.618 23.618 0 0 0-.433 4.536c0 8.189 4.021 14.849 8.965 14.849 4.943 0 8.965-6.662 8.965-14.849a23.625 23.625 0 0 0-.432-4.536H34.733z"/><path fill="#443CD5" d="M41.903 47.448h-.042a.554.554 0 0 1-.51-.595 9.307 9.307 0 0 0-1.03-5.063.554.554 0 0 1 .981-.517 10.422 10.422 0 0 1 1.153 5.665.554.554 0 0 1-.552.51zm2.724 0a.554.554 0 0 1-.554-.512 10.423 10.423 0 0 1 1.153-5.665.555.555 0 0 1 .98.517 9.309 9.309 0 0 0-1.028 5.064.554.554 0 0 1-.51.594l-.041.002z"/><path fill="#443CD5" d="M48.062 49.858a.554.554 0 0 1-.54-.43c-.268-1.178-2.136-2.099-4.257-2.099-2.12 0-3.989.921-4.257 2.098a.554.554 0 1 1-1.08-.245c.387-1.718 2.633-2.961 5.337-2.961 2.704 0 4.949 1.246 5.338 2.96a.554.554 0 0 1-.54.677zM36.258 37.622a.593.593 0 0 1-.07-.005A8.25 8.25 0 0 1 29 29.445v-3.846a2.837 2.837 0 0 1 2.832-2.836h2.138a.554.554 0 1 1 0 1.108h-2.138a1.728 1.728 0 0 0-1.724 1.728v3.844a7.138 7.138 0 0 0 6.22 7.07.555.555 0 1 1-.07 1.109zm14.014 0a.556.556 0 0 1-.07-1.108 7.138 7.138 0 0 0 6.22-7.07v-3.845A1.727 1.727 0 0 0 54.7 23.87h-2.14a.554.554 0 1 1 0-1.108h2.14a2.837 2.837 0 0 1 2.831 2.836v3.844a8.248 8.248 0 0 1-7.258 8.179z"/></svg>