<svg xmlns="http://www.w3.org/2000/svg" width="85" height="79" fill="none"><path fill="#443CD5" fill-opacity=".05" d="M0 0h85v79H0z"/><path fill="#443CD5" d="M27 38.38h13.267c.366 0 .666-.3.666-.667V24.447c0-.367-.3-.667-.666-.667H27c-.366 0-.666.3-.666.667v13.266c0 .367.3.667.666.667zm.667-13.267H39.6v11.934H27.667V25.113zm24.7-1.333a7.306 7.306 0 0 0-7.3 7.3c0 4.027 3.273 7.3 7.3 7.3 4.027 0 7.3-3.273 7.3-7.3 0-4.027-3.273-7.3-7.3-7.3zm0 13.267A5.974 5.974 0 0 1 46.4 31.08a5.978 5.978 0 0 1 5.967-5.967 5.973 5.973 0 0 1 5.967 5.967 5.973 5.973 0 0 1-5.967 5.967zM45.733 56.22H59a.67.67 0 0 0 .58-1l-6.633-11.487c-.24-.413-.92-.413-1.154 0L45.16 55.227a.662.662 0 0 0 .573.993zm6.634-10.82 5.48 9.493h-10.96l5.48-9.493zm-15.414-2H30.32a.67.67 0 0 0-.58.333l-3.32 5.747a.662.662 0 0 0 0 .667l3.32 5.746c.12.207.34.334.58.334h6.633c.24 0 .46-.127.58-.334l3.32-5.746a.662.662 0 0 0 0-.667l-3.32-5.747a.686.686 0 0 0-.58-.333zm-.386 11.487H30.7l-2.933-5.08 2.933-5.08h5.867l2.933 5.08-2.933 5.08z"/></svg>