<svg xmlns="http://www.w3.org/2000/svg" width="85" height="79" fill="none"><path fill="#443CD5" d="M42.666 30.474a5.14 5.14 0 0 0-5.135 5.133 5.14 5.14 0 0 0 5.135 5.134 5.14 5.14 0 0 0 5.136-5.134 5.14 5.14 0 0 0-5.136-5.133zm0 8.8a3.672 3.672 0 0 1-3.669-3.667 3.672 3.672 0 0 1 3.67-3.666 3.672 3.672 0 0 1 3.669 3.666 3.672 3.672 0 0 1-3.67 3.667z"/><path fill="#443CD5" d="M51.455 40.013c.002-.157.012-.313.012-.47 0-8.381-3.02-16.157-8.286-21.333a.735.735 0 0 0-1.028 0c-5.266 5.176-8.286 12.952-8.286 21.333 0 .157.01.313.012.47C30.345 41.85 28 46.765 28 52.466c0 .405.328.734.733.734h8.959l-1.532 2.553a.733.733 0 0 0 .628 1.11h11.736a.733.733 0 0 0 .629-1.11L47.62 53.2h8.98a.733.733 0 0 0 .733-.734c0-5.701-2.344-10.615-5.878-12.453zm-8.788-20.235c1.55 1.625 2.872 3.502 3.956 5.562H38.71c1.084-2.06 2.407-3.937 3.956-5.562zM29.48 51.733c.175-4.43 1.923-8.318 4.46-10.053.222 3.509.986 6.93 2.245 10.053H29.48zm8.603 3.664 1.319-2.197h6.507l1.319 2.197h-9.145zm9.486-3.664h-9.806c-1.591-3.716-2.43-7.92-2.43-12.19 0-4.558.937-8.918 2.662-12.736h9.342C49.063 30.625 50 34.985 50 39.543c0 4.27-.84 8.474-2.43 12.19zm1.578 0c1.259-3.123 2.023-6.544 2.244-10.053 2.538 1.735 4.286 5.623 4.46 10.053h-6.704zm-6.48 5.867a.733.733 0 0 0-.733.734v2.933a.733.733 0 0 0 1.466 0v-2.933a.733.733 0 0 0-.733-.733zm-3.671 0a.733.733 0 0 0-.733.734V59.8a.733.733 0 0 0 1.466 0v-1.465a.733.733 0 0 0-.733-.733zm7.342 0a.733.733 0 0 0-.734.734V59.8a.733.733 0 0 0 1.467 0v-1.465a.733.733 0 0 0-.733-.733z"/><path fill="#443CD5" fill-opacity=".05" d="M0 0h85v79H0z"/></svg>